<svg fill="none" height="24" viewBox="0 0 24 24" width="24" xmlns="http://www.w3.org/2000/svg"><g stroke="#1c274c" stroke-width="1.5"><path d="m3.33946 16.9997c2.76143 4.7829 8.87734 6.4217 13.66024 3.6603 1.9496-1.1256 3.3768-2.8086 4.1965-4.7314 1.1913-2.7945 1.0996-6.09556-.5362-8.92888s-4.4488-4.5633-7.4645-4.92884c-2.0751-.25153-4.24618.14298-6.19578 1.26858-4.78293 2.76143-6.421681 8.87734-3.66026 13.66024z"/><g stroke-linecap="round"><path d="m16.9498 20.5732s-.939-6.5912-2.9493-10.0732c-2.0104-3.48202-6.95021-7.07324-6.95021-7.07324"/><path d="m21.8638 12.5803c-5.411-1.187-12.80477 3.7677-14.28641 8.2374"/><path d="m16.4141 3.20884c-1.4879 4.42106-8.73967 9.30336-14.12533 8.24266"/></g></g></svg>